<?xml version="1.0" encoding="utf-8"?>

<!DOCTYPE svg PUBLIC "-//W3C//DTD SVG 1.1//EN" "http://www.w3.org/Graphics/SVG/1.1/DTD/svg11.dtd">
<svg version="1.1" id="Layer_1" xmlns="http://www.w3.org/2000/svg" xmlns:xlink="http://www.w3.org/1999/xlink" x="0px" y="0px"
	 width="1269.104px" height="1269.286px" viewBox="0 0 1269.104 1269.286" enable-background="new 0 0 1269.104 1269.286"
	 xml:space="preserve">
<polygon fill="#666766" points="795.388,562.182 758.452,733.937 634.714,793.036 634.714,793.122 510.977,734.024 474.04,562.268
	6.792,290.785 88.053,438.531 431.563,619.52 474.04,772.807 634.714,844.833 634.714,844.747 795.388,772.721 837.866,619.434
	1181.376,438.444 1262.636,290.698 "/>
<polygon fill="#666766" points="840.477,697.21 1100.88,593.787 1161.825,476.575 855.252,636.264 "/>
<polygon fill="#666766" points="827.492,760.68 1040.346,709.892 1088.969,620.296 837.808,719.743 "/>
<polygon fill="#666766" points="414.177,636.351 107.603,476.661 168.549,593.874 428.952,697.296 "/>
<polygon fill="#666766" points="180.459,620.382 229.083,709.979 441.937,760.767 431.621,719.826 "/>
</svg>
