<?xml version="1.0" encoding="UTF-8" standalone="no"?>
<!-- Created with Inkscape (http://www.inkscape.org/) -->

<svg
   xmlns:dc="http://purl.org/dc/elements/1.1/"
   xmlns:cc="http://creativecommons.org/ns#"
   xmlns:rdf="http://www.w3.org/1999/02/22-rdf-syntax-ns#"
   xmlns:svg="http://www.w3.org/2000/svg"
   xmlns="http://www.w3.org/2000/svg"
   xmlns:sodipodi="http://sodipodi.sourceforge.net/DTD/sodipodi-0.dtd"
   xmlns:inkscape="http://www.inkscape.org/namespaces/inkscape"
   width="1000"
   height="245.04454"
   id="svg2"
   version="1.1"
   inkscape:version="0.48.2 r9819"
   sodipodi:docname="New document 1">
  <defs
     id="defs4" />
  <sodipodi:namedview
     id="base"
     pagecolor="#ffffff"
     bordercolor="#666666"
     borderopacity="1.0"
     inkscape:pageopacity="0.0"
     inkscape:pageshadow="2"
     inkscape:zoom="0.49497475"
     inkscape:cx="731.32771"
     inkscape:cy="68.588432"
     inkscape:document-units="px"
     inkscape:current-layer="layer1"
     showgrid="false"
     fit-margin-top="0.5"
     fit-margin-left="0.5"
     fit-margin-right="0.5"
     fit-margin-bottom="0.5"
     inkscape:window-width="1920"
     inkscape:window-height="1028"
     inkscape:window-x="-8"
     inkscape:window-y="-8"
     inkscape:window-maximized="1">
    <inkscape:grid
       type="xygrid"
       id="grid2996"
       empspacing="5"
       visible="true"
       enabled="true"
       snapvisiblegridlinesonly="true" />
  </sodipodi:namedview>
  <metadata
     id="metadata7">
    <rdf:RDF>
      <cc:Work
         rdf:about="">
        <dc:format>image/svg+xml</dc:format>
        <dc:type
           rdf:resource="http://purl.org/dc/dcmitype/StillImage" />
        <dc:title></dc:title>
      </cc:Work>
    </rdf:RDF>
  </metadata>
  <g
     inkscape:label="Layer 1"
     inkscape:groupmode="layer"
     id="layer1"
     transform="translate(-94.500003,-287.83047)">
    <g
       id="g3012"
       transform="matrix(1.8349214,0,0,1.8349214,-79.31753,-444.49126)">
      <path
         sodipodi:nodetypes="cccccccccc"
         inkscape:connector-curvature="0"
         id="path2998"
         d="m 95,402.36218 26.51786,104.82143 c 3.39285,13.41816 9.57338,23.73214 23.57143,23.73214 11.24761,0 19.09523,-4.91589 28.28571,-17.94643 L 248,402.36218 l -27,0 c -21.94101,0 -27.93462,9.58924 -33.73214,18.35714 l -31.53572,47.28572 -16.46428,-65.64286 z"
         style="fill:#ff0031;fill-opacity:1;stroke:none" />
      <path
         id="path3000"
         d="m 306.625,399.375 c -50.7604,0 -79.625,42.38059 -79.625,76 0,36.07296 26.08628,57 62.71875,57 35.41201,0 60.64732,-23.75595 69.71875,-43 l -48.4375,0 c -2.73951,2.61632 -8.98431,7 -19,7 -12.65082,0 -22,-9.22933 -22,-19 l 83,0 c 9.36552,0 15,-0.82751 15,-21.03125 0,-32.40299 -22.35218,-56.96875 -61.375,-56.96875 z m -3.53125,36 c 13.32141,0 20.90625,10.40096 20.90625,14 0,1.27342 -1.1038,2 -2.1875,2 l -45.8125,0 c 2.76466,-5.0987 12.15456,-16 27.09375,-16 z"
         style="fill:#ff0031;fill-opacity:1;stroke:none"
         inkscape:connector-curvature="0" />
      <path
         id="path3004"
         d="M 578.28125,399.375 C 529.03246,399.375 499,439.70838 499,475.65625 c 0,30.40295 20.27132,56.71875 62,56.71875 43.67321,0 78.4375,-35.44393 78.4375,-77 0,-32.38101 -23.86186,-56 -61.15625,-56 z m -4.09375,39.34375 c 16.67666,0 20.8125,13.59387 20.8125,20.65625 0,16.27208 -13.81408,33.6875 -30.71875,33.6875 -13.72698,0 -21,-9.70859 -21,-20.6875 0,-16.87295 14.45613,-33.65625 30.90625,-33.65625 z"
         style="fill:#ff0031;fill-opacity:1;stroke:none"
         inkscape:connector-curvature="0" />
      <path
         style="fill:#ff0031;fill-opacity:1;stroke:none"
         d="m 368.61475,402.36218 26.51786,104.82143 c 3.39285,13.41816 9.57338,23.73214 23.57143,23.73214 11.24761,0 19.09523,-4.91589 28.28571,-17.94643 l 74.625,-110.60714 -27,0 c -21.94101,0 -27.93462,9.58924 -33.73214,18.35714 l -31.53572,47.28572 -16.46428,-65.64286 z"
         id="path3008"
         inkscape:connector-curvature="0"
         sodipodi:nodetypes="cccccccccc" />
    </g>
  </g>
</svg>
